<svg xmlns="http://www.w3.org/2000/svg" width="64" height="64" viewBox="0 0 64 64" fill="none">
  <defs>
    <linearGradient id="g" x1="0" y1="0" x2="64" y2="64" gradientUnits="userSpaceOnUse">
      <stop stop-color="#b9ff4f" offset="0"/>
      <stop stop-color="#a3e635" offset="1"/>
    </linearGradient>
  </defs>
  <!-- Bowl -->
  <path d="M12 36c2.5 8 11.2 14 20 14s17.5-6 20-14H12z" stroke="url(#g)" stroke-width="2.5" fill="none"/>
  <!-- Rim -->
  <path d="M10 32h44" stroke="url(#g)" stroke-width="2.5" stroke-linecap="round"/>
  <!-- Noodles -->
  <path d="M18 30c4-4 10-6 14-6s10 2 14 6" stroke="url(#g)" stroke-width="2" fill="none" stroke-linecap="round"/>
  <path d="M22 30c3-3 8-4.5 10-4.5S39 27 42 30" stroke="url(#g)" stroke-width="1.6" fill="none" stroke-linecap="round"/>
  <!-- Steam -->
  <path d="M24 16c0 3 3 3 3 6s-3 3-3 6" stroke="url(#g)" stroke-width="1.8" fill="none" stroke-linecap="round"/>
  <path d="M34 14c0 3 3 3 3 6s-3 3-3 6" stroke="url(#g)" stroke-width="1.8" fill="none" stroke-linecap="round"/>
  <!-- Chopsticks -->
  <path d="M40 10l12 8" stroke="url(#g)" stroke-width="2" stroke-linecap="round"/>
  <path d="M38 12l12 8" stroke="url(#g)" stroke-width="2" stroke-linecap="round"/>
</svg>

